<?xml version="1.0" encoding="UTF-8"?>
<svg id="Lag_1" data-name="Lag 1" xmlns="http://www.w3.org/2000/svg" width="123.01" height="123.01" viewBox="0 0 123.01 123.01">
  <path d="M61.51,16c25.09,0,45.51,20.41,45.51,45.51s-20.41,45.51-45.51,45.51-45.51-20.41-45.51-45.51S36.41,16,61.51,16M61.51,0C27.54,0,0,27.54,0,61.51s27.54,61.51,61.51,61.51,61.51-27.54,61.51-61.51S95.48,0,61.51,0h0Z" style="fill: #c1bfb8;"/>
  <line x1="19.06" y1="99.79" x2="99.85" y2="21.14" style="fill: none; stroke: #c1bfb8; stroke-miterlimit: 10; stroke-width: 16px;"/>
  <path d="M105.09,52.25c0,5.42-1.82,10.4-4.88,14.39l-.04.04-1.84,2.07c-.27.3-.54.59-.83.86-.67.62.46-.29-.27.25l-6.1,6.38-29.8,34.44-35.63-40.88-3.68-4.23c-2.6-3.8-4.11-8.39-4.1-13.33.01-12.95,10.66-23.6,23.62-23.6,8.4,0,15.78,4.39,19.97,11,4.18-6.61,11.56-11,19.96-11,13.05,0,23.62,10.58,23.62,23.62Z" style="fill: none; stroke: #c1bfb8; stroke-miterlimit: 10; stroke-width: 4px;"/>
</svg>