<?xml version="1.0" encoding="UTF-8"?>
<svg id="Lag_1" data-name="Lag 1" xmlns="http://www.w3.org/2000/svg" width="194.04" height="371.17" viewBox="0 0 194.04 371.17">
  <path d="M.5,137.83C.5,47.01,42.57.5,94.48.5s93.98,46.51,93.98,137.33-42.07,164.46-93.98,164.46" style="stroke: #000; stroke-miterlimit: 10;"/>
  <path d="M94.48,302.29C42.57,302.29.5,228.66.5,137.83" style="stroke: #000; stroke-miterlimit: 10;"/>
  <rect x="5.66" y="199.42" width="187.88" height="171.25" style="fill: #9a0c18; stroke: #9a0c18; stroke-miterlimit: 10;"/>
  <path id="krop" d="M5.66,199.42c0-20.16,16.35-36.51,36.51-36.51h114.85c20.16,0,36.51,16.35,36.51,36.51v138.88" style="fill: #9a0c18; stroke: #9a0c18; stroke-miterlimit: 10;"/>
  <polyline id="hals" points="95.53 259.02 77.63 183.05 76.75 151.4 114.31 151.4 113.3 181.2 95.53 259.02" style="fill: #d79167;"/>
  <ellipse cx="34.73" cy="127.96" rx="2.58" ry="20.88" style="fill: none; stroke: #ffb327; stroke-miterlimit: 10;"/>
  <ellipse cx="154.81" cy="124.86" rx="2.58" ry="20.88" style="fill: none; stroke: #ffb327; stroke-miterlimit: 10;"/>
  <polygon points="168.62 216.11 159.38 152.35 177.85 152.35 168.62 216.11" style="stroke: #000; stroke-miterlimit: 10;"/>
  <path id="ansigt" d="M156.8,100.59c.15,17.09-12.72,25.84-23.9,37.1-11.33,11.42-21.1,25.23-38.43,25.23-15.78,0-27.76-13.33-38.74-23-12.97-11.42-23.59-20.68-23.59-39.32,0-13.83,16.65-22.05,27.3-37.02,9.22-12.97,13.18-18.27,20.71-35.63,6.75-15.57,0,0,14.32,10.32,26.7,19.24,62.11,37.63,62.33,62.33Z" style="fill: #e79c71; stroke: #000; stroke-miterlimit: 10;"/>
  <polyline id="næse" points="94.48 94.73 94.48 102.74 95.21 114.01 99.6 115.43 97.39 118.06 94.63 119.44 91.45 118.33" style="fill: none; stroke: #000; stroke-miterlimit: 10;"/>
  <polygon id="mund" points="79.12 139.31 84.04 131.37 86.81 129.65 90.34 128.41 92.83 130.23 94.21 132.04 96.17 129.46 97.89 128.03 101.14 129.08 104.01 130.61 110.08 140.09 104.61 139.23 102.03 139.15 98.51 139.07 93.98 138.99 90.85 138.99 88.42 138.99 85.28 138.83 79.12 139.31" style="fill: #870006; stroke: #5c0208; stroke-miterlimit: 10;"/>
  <polyline id="mund-2" data-name="mund" points="79.12 139.31 86.47 134.77 94.05 134.06 101.56 134.54 109.79 139.63" style="fill: none; stroke: #5c0208; stroke-miterlimit: 10;"/>
  <g id="_øje" data-name="øje">
    <path id="_øje-2" data-name="øje" d="M52.33,90.52l4.95,3.45c6.92,5.01,12.34,5.89,21.08-.05l3.5-3.77" style="fill: none; stroke: #000; stroke-miterlimit: 10;"/>
    <line id="_øjenvippe" data-name="øjenvippe" x1="52.87" y1="91.03" x2="49.31" y2="95.24" style="fill: none; stroke: #000; stroke-miterlimit: 10;"/>
    <line id="_øjenvippe-2" data-name="øjenvippe" x1="57.28" y1="93.97" x2="54.94" y2="98.05" style="fill: none; stroke: #000; stroke-miterlimit: 10;"/>
    <line id="_øjenvippe-3" data-name="øjenvippe" x1="62.08" y1="96.83" x2="60.98" y2="100.39" style="fill: none; stroke: #000; stroke-miterlimit: 10;"/>
  </g>
  <g id="_øje-3" data-name="øje">
    <path id="_øje-4" data-name="øje" d="M107.68,90.52l4.95,3.45c6.92,5.01,12.34,5.89,21.08-.05l3.5-3.77" style="fill: none; stroke: #000; stroke-miterlimit: 10;"/>
    <line id="_øjenvippe-4" data-name="øjenvippe" x1="136.8" y1="90.77" x2="141.06" y2="94.73" style="fill: none; stroke: #000; stroke-miterlimit: 10;"/>
    <line id="_øjenvippe-5" data-name="øjenvippe" x1="132.67" y1="95.12" x2="135.75" y2="99.26" style="fill: none; stroke: #000; stroke-miterlimit: 10;"/>
    <line id="_øjenvippe-6" data-name="øjenvippe" x1="127.2" y1="97.19" x2="128.31" y2="101.98" style="fill: none; stroke: #000; stroke-miterlimit: 10;"/>
  </g>
  <ellipse id="kind" cx="130.63" cy="111.19" rx="13.44" ry="4.11" style="fill: #cc1726; stroke: #cc1726; stroke-miterlimit: 10;"/>
  <ellipse id="kind-2" data-name="kind" cx="59.58" cy="112.71" rx="13.44" ry="4.11" style="fill: #cc1726; stroke: #cc1726; stroke-miterlimit: 10;"/>
  <polygon points="52.69 91.24 54.94 93.13 53.75 117.86 54.17 137.83 50.73 134.56 52.69 91.24" style="fill: #00defc;"/>
  <polygon points="129.41 96.92 131.84 95.81 132.69 137.19 130.33 139.63 129.41 96.92" style="fill: #00defc;"/>
  <path d="M43.53,223.79c.34,4.79.13,9.62-.72,14.36s-2.39,9.15-3.97,13.63c-2.94,8.29-5.61,17.41-1.97,25.93,1.65,3.86,4.21,7.23,6,11.02,1.94,4.1,2.94,8.62,3.42,13.11.99,9.18.27,18.53.02,27.73-.31,11.25-.62,22.5-.93,33.75-.03.97,1.47.96,1.5,0,.28-10.01.55-20.02.83-30.02.26-9.35.92-18.81.36-28.16-.26-4.25-.84-8.52-2.12-12.6s-3.48-7.67-5.62-11.37c-2.34-4.04-3.81-8.14-3.75-12.86s1.35-9.28,2.87-13.72c1.71-5,3.63-9.91,4.64-15.11s1.31-10.43.94-15.68c-.07-.96-1.57-.96-1.5,0h0Z" style="fill: #690a10;"/>
  <path d="M148.75,223.29c-.35,4.73-.13,9.48.67,14.16s2.36,9.26,4.01,13.76c3.24,8.86,6.25,18.38,1.62,27.33-1.92,3.72-4.47,7.07-6.12,10.94s-2.55,8.02-3.03,12.21c-1.06,9.22-.31,18.64-.05,27.88.32,11.41.65,22.82.97,34.24.03.96,1.53.97,1.5,0-.29-10.16-.58-20.32-.87-30.49-.27-9.42-.97-18.95-.35-28.36.29-4.38.96-8.76,2.43-12.91s3.97-7.67,6.12-11.47,3.36-7.68,3.37-12c.01-4.65-1.16-9.2-2.65-13.56-1.72-5.04-3.79-9.96-4.96-15.17s-1.58-11-1.17-16.55c.07-.96-1.43-.96-1.5,0h0Z" style="fill: #690a10;"/>
</svg>